<svg xmlns="http://www.w3.org/2000/svg"  viewBox="0 0 48 48" width="48px" height="48px" baseProfile="basic"><path d="M40,41H8c-2.757,0-5-2.243-5-5V16c0-2.757,2.243-5,5-5h32c2.757,0,5,2.243,5,5v20C45,38.757,42.757,41,40,41z"/><path fill="#fff" d="M44,14v20c0,2.209-1.791,4-4,4H8c-2.209,0-4-1.791-4-4V14c0-2.209,1.791-4,4-4h32	C42.209,10,44,11.791,44,14z"/><path d="M40,39H8c-2.757,0-5-2.243-5-5V14c0-2.757,2.243-5,5-5h32c2.757,0,5,2.243,5,5v20C45,36.757,42.757,39,40,39z M8,11	c-1.654,0-3,1.346-3,3v20c0,1.654,1.346,3,3,3h32c1.654,0,3-1.346,3-3V14c0-1.654-1.346-3-3-3H8z"/><polygon points="18.66,28.933 21.254,28.933 22.824,19.155 20.199,19.155"/><path d="M16.395,19.154L16.395,19.154l-2.375,6.964l-1.186-5.979c0,0-0.394-0.963-1.42-0.963c-1.027,0-4.014,0-4.014,0	s1.294,0.396,2.733,1.277l2.231,8.479h2.861l3.948-9.778H16.395z"/><path d="M26.505,21.955c0-0.567,0.45-0.989,1.741-0.989c0.839,0,1.8,0.632,1.8,0.632l0.42-2.161c0,0-1.229-0.48-2.431-0.48	c-2.73,0-4.139,1.35-4.139,3.059c0,3.089,3.598,2.667,3.598,4.256c0,0.269-0.21,0.899-1.708,0.899c-1.501,0-2.491-0.571-2.491-0.571	l-0.449,2.072c0,0,0.961,0.568,2.82,0.568c1.859,0,4.439-1.439,4.439-3.508C30.105,23.244,26.505,23.064,26.505,21.955z"/><path d="M37.024,19.155h-2.73l-4.259,9.778h2.577l0.534-1.396h3.248l0.28,1.396h2.36L37.024,19.155z M33.866,25.669l1.412-3.695	l0.74,3.695H33.866z"/></svg>